<?xml version="1.0" encoding="UTF-8" standalone="no"?>
<svg
   xmlns:dc="http://purl.org/dc/elements/1.1/"
   xmlns:cc="http://creativecommons.org/ns#"
   xmlns:rdf="http://www.w3.org/1999/02/22-rdf-syntax-ns#"
   xmlns:svg="http://www.w3.org/2000/svg"
   xmlns="http://www.w3.org/2000/svg"
   xmlns:sodipodi="http://sodipodi.sourceforge.net/DTD/sodipodi-0.dtd"
   xmlns:inkscape="http://www.inkscape.org/namespaces/inkscape"
   inkscape:version="1.0 (4035a4fb49, 2020-05-01)"
   inkscape:export-ydpi="96"
   inkscape:export-xdpi="96"
   inkscape:export-filename="C:\Users\Mateus Andre\Desktop\logosSysagro\LogoComercial\Logo_SysAgro_Branca_Avicultura.png"
   sodipodi:docname="Logo_SysAgro_Branca_Sistemas.svg"
   width="821.26849mm"
   height="279.03772mm"
   viewBox="0 0 821.2685 279.03772"
   version="1.1"
   id="svg74">
  <sodipodi:namedview
     inkscape:current-layer="svg74"
     inkscape:window-maximized="1"
     inkscape:window-y="-8"
     inkscape:window-x="-8"
     inkscape:cy="527.31538"
     inkscape:cx="1552.0035"
     inkscape:zoom="0.33795028"
     inkscape:pagecheckerboard="true"
     showgrid="false"
     id="namedview951"
     inkscape:window-height="1017"
     inkscape:window-width="1920"
     inkscape:pageshadow="2"
     inkscape:pageopacity="0"
     guidetolerance="10"
     gridtolerance="10"
     objecttolerance="10"
     borderopacity="1"
     bordercolor="#666666"
     pagecolor="#ffffff" />
  <defs
     id="defs68">
    <rect
       id="rect1522"
       height="218.43081"
       width="624.75908"
       y="28.967526"
       x="112.73848" />
    <rect
       id="rect1516"
       height="50.888897"
       width="470.52657"
       y="187.11456"
       x="343.69578" />
    <rect
       x="344.47869"
       y="1.5658122"
       width="504.19153"
       height="82.988048"
       id="rect2094" />
    <rect
       x="340.56416"
       y="15.658122"
       width="496.36247"
       height="157.36413"
       id="rect2088" />
    <rect
       x="313.94535"
       y="247.39833"
       width="533.15906"
       height="123.69917"
       id="rect2082" />
    <rect
       id="rect1458"
       height="133.09404"
       width="525.33001"
       y="199.64106"
       x="362.48553" />
    <rect
       x="948.89203"
       y="517.14014"
       width="45.70076"
       height="12.026515"
       id="rect327" />
    <rect
       x="952.5"
       y="601.32574"
       width="513.53223"
       height="129.88635"
       id="rect321" />
    <rect
       x="449.79166"
       y="478.6553"
       width="518.34277"
       height="84.185608"
       id="rect313" />
    <rect
       x="1060.7386"
       y="584.48865"
       width="365.60605"
       height="316.29736"
       id="rect307" />
    <rect
       x="681.90338"
       y="437.76514"
       width="271.79922"
       height="153.93939"
       id="rect301" />
    <rect
       x="429.55881"
       y="270.03064"
       width="451.34805"
       height="312.0527"
       id="rect277" />
    <rect
       x="488.70099"
       y="322.16913"
       width="474.69363"
       height="160.30637"
       id="rect267" />
  </defs>
  <metadata
     id="metadata71">
    <rdf:RDF>
      <cc:Work
         rdf:about="">
        <dc:format>image/svg+xml</dc:format>
        <dc:type
           rdf:resource="http://purl.org/dc/dcmitype/StillImage" />
        <dc:title></dc:title>
      </cc:Work>
    </rdf:RDF>
  </metadata>
  <path
     style="fill:#ffffff;fill-opacity:1;stroke-width:0.586399"
     id="path185"
     d="m 52.2503,162.65497 c -28.85663,0 -52.24968,21.45555 -52.24968,47.92216 0,26.46661 23.39305,47.92215 52.24968,47.92215 14.62425,0 27.83715,-5.51706 37.32112,-14.39748 V 162.65441 H 52.2503 Z" />
  <path
     style="fill:#ffffff;fill-opacity:1;stroke-width:0.586399"
     id="path179"
     d="M 164.21426,66.8101 H 111.96458 V 196.885 c 0,45.37141 40.10281,82.15273 89.57141,82.15273 h 44.7857 V 142.11651 C 246.32108,100.52627 209.56022,66.8101 164.21426,66.8101 Z m 14.92857,75.30641 h -0.001 c -8.23058,0 -14.92734,-6.14212 -14.92734,-13.69213 0.003,-7.55113 6.69982,-13.69213 14.92857,-13.69213 8.23181,0 14.92857,6.14212 14.92857,13.69213 0,7.55001 -6.69738,13.69213 -14.92857,13.69213 z" />
  <path
     d="M 89.57142,148.96285 V 66.8101 H 0 Z"
     style="fill:#ffffff;fill-opacity:1;stroke-width:0.586399"
     id="polygon191" />
  <path
     id="path94"
     d=""
     style="fill:#ffffff;fill-opacity:1;stroke-width:0.0375827" />
  <path
     id="path171"
     d="m 263.79018,150.40155 c 0,-8.47869 -1.22992,-17.45465 -3.6471,-26.61658 -10.43675,-39.5589 -39.49927,-64.47244 -83.61722,-71.68002 -9.00221,-1.47071 -24.96978,-2.59388 -33.08757,-2.32741 l -6.36223,0.20883 1.42597,-5.32539 c 6.97815,-26.06051 21.39141,-37.95512 40.11377,-33.10413 12.6513,3.27797 27.44711,15.82346 27.44711,23.27263 0,2.18422 0.86635,1.63952 2.4982,-1.5707 2.4579,-4.83523 7.98316,-12.59203 12.14032,-17.04347 7.02835,-7.52586 13.78424,-12.10598 21.74169,-14.73961 5.60147,-1.85388 16.3059,-1.98412 21.34706,-0.25973 17.60014,6.02035 28.55047,21.95645 27.48449,39.9984 -0.69189,11.7104 -6.10991,22.24509 -16.38321,31.85528 -3.11285,2.91191 -3.86408,3.92153 -3.22088,4.3288 0.46135,0.29214 1.28275,0.5353 1.82531,0.54036 2.88343,0.027 13.60977,3.43397 18.89778,6.00258 16.68225,8.10331 20.65541,20.73949 12.0124,38.20408 -7.6365,15.43077 -26.7562,32.82923 -38.3609,34.90756 l -2.25499,0.40385 z"
     style="fill:#ffffff;fill-opacity:1;stroke-width:0.601327" />
  <g
     aria-label="SYSAGRO"
     transform="matrix(11.925544,0,0,11.925544,-4777.9632,-3155.1919)"
     id="text275"
     style="font-size:10.5833px;line-height:1.25;font-family:'Concert One';-inkscape-font-specification:'Concert One';white-space:pre;shape-inside:url(#rect277);display:inline;fill:#ffffff;fill-opacity:1;stroke-width:1.00444;stroke-miterlimit:4;stroke-dasharray:none">
    <path
       d="m 431.61531,274.72504 q 0.005,0.21704 0.12402,0.39274 0.12403,0.17053 0.3204,0.32556 0.20153,0.15503 0.45475,0.30489 0.25321,0.14469 0.51676,0.31006 0.26872,0.16019 0.52193,0.35139 0.25321,0.19121 0.45475,0.43409 0.20154,0.24287 0.32556,0.54776 0.12402,0.30489 0.13436,0.69247 v 0.0413 q 0,0.42374 -0.10335,0.73897 -0.10336,0.31522 -0.27389,0.5426 -0.17053,0.22737 -0.3979,0.37724 -0.22738,0.14469 -0.48059,0.23254 -0.24805,0.0879 -0.50643,0.12402 -0.25322,0.0362 -0.48059,0.0413 h -0.0517 q -0.43925,0 -0.76997,-0.0879 -0.33073,-0.0879 -0.56844,-0.23254 -0.23771,-0.14986 -0.39791,-0.34106 -0.15503,-0.19121 -0.24805,-0.39274 -0.093,-0.20671 -0.13435,-0.40825 -0.0413,-0.20153 -0.0413,-0.37723 0,-0.18087 0.062,-0.31523 0.062,-0.13436 0.16019,-0.21704 0.10336,-0.0879 0.23255,-0.12919 0.13435,-0.0413 0.27905,-0.0413 0.13436,0 0.27388,0.0413 0.1447,0.0413 0.25838,0.12919 0.11886,0.0827 0.19121,0.21704 0.0775,0.12919 0.0827,0.30489 0.0103,0.38757 0.1757,0.53227 0.16536,0.13952 0.47542,0.13952 0.15503,-0.005 0.28422,-0.0362 0.13436,-0.0362 0.22737,-0.11886 0.093,-0.0878 0.1447,-0.22737 0.0568,-0.14469 0.0568,-0.36173 0,-0.26872 -0.12402,-0.48576 -0.11886,-0.21704 -0.31523,-0.40308 -0.19637,-0.18603 -0.44958,-0.3514 -0.25321,-0.17053 -0.51676,-0.33589 -0.26355,-0.17053 -0.51677,-0.3514 -0.24804,-0.18603 -0.44958,-0.40307 -0.20154,-0.21704 -0.32556,-0.48059 -0.11886,-0.26355 -0.12402,-0.59945 v -0.0827 q 0.005,-0.55294 0.14469,-0.91984 0.14469,-0.3669 0.41858,-0.58394 0.27905,-0.21704 0.68212,-0.30489 0.40308,-0.093 0.92501,-0.093 h 0.13436 q 0.47542,0 0.80615,0.10336 0.33073,0.10335 0.54777,0.26354 0.2222,0.1602 0.34623,0.36174 0.12919,0.20154 0.1912,0.39791 0.062,0.19637 0.0775,0.3669 0.0155,0.17053 0.0155,0.27388 0,0.15503 -0.062,0.28422 -0.0568,0.12402 -0.1602,0.21187 -0.0982,0.0879 -0.23771,0.13953 -0.13436,0.0465 -0.29456,0.0465 -0.12402,0 -0.24804,-0.0465 -0.12403,-0.0517 -0.22221,-0.12919 -0.0982,-0.0775 -0.1602,-0.1757 -0.062,-0.10335 -0.062,-0.20671 0,-0.42374 -0.15503,-0.58911 -0.14986,-0.16536 -0.44441,-0.16536 -0.13953,0 -0.27389,0.0155 -0.12919,0.0155 -0.23254,0.0879 -0.0982,0.0672 -0.1602,0.21188 -0.0568,0.14469 -0.0568,0.40824 z"
       style="letter-spacing:0.232734px;fill:#ffffff;fill-opacity:1;stroke-width:1.00444;stroke-miterlimit:4;stroke-dasharray:none"
       id="path856" />
    <path
       d="m 438.42126,278.97283 q 0,0.21704 -0.0207,0.42891 -0.0207,0.20671 -0.0982,0.37207 -0.0775,0.16536 -0.23254,0.26872 -0.15503,0.0982 -0.42375,0.0982 -0.27388,0 -0.42891,-0.0982 -0.15503,-0.10336 -0.23771,-0.26872 -0.0775,-0.16536 -0.0982,-0.37207 -0.0207,-0.21187 -0.0207,-0.42891 v -1.79834 l -1.53995,-2.74917 q -0.12402,-0.21704 -0.23771,-0.42375 -0.11369,-0.21187 -0.11369,-0.42374 0,-0.13953 0.0775,-0.27906 0.0827,-0.14469 0.29456,-0.26871 0.23254,-0.12403 0.43408,-0.12403 0.15503,0 0.27905,0.0724 0.12919,0.0672 0.23254,0.18087 0.10336,0.11369 0.18604,0.25838 0.0827,0.13952 0.14986,0.28422 l 0.94051,1.97403 h 0.16536 l 0.94051,-1.97403 q 0.0672,-0.1447 0.14986,-0.28422 0.0827,-0.14469 0.18604,-0.25838 0.10335,-0.11369 0.22737,-0.18087 0.12919,-0.0724 0.28422,-0.0724 0.10852,0 0.21187,0.031 0.10336,0.031 0.22221,0.093 0.20154,0.12402 0.28422,0.26871 0.0879,0.13953 0.0879,0.27906 0,0.093 -0.0827,0.30489 -0.0827,0.2067 -0.26872,0.5426 l -1.55029,2.74917 z"
       style="letter-spacing:0.232734px;fill:#ffffff;fill-opacity:1;stroke-width:1.00444;stroke-miterlimit:4;stroke-dasharray:none"
       id="path858" />
    <path
       d="m 442.49871,274.72504 q 0.005,0.21704 0.12403,0.39274 0.12402,0.17053 0.32039,0.32556 0.20154,0.15503 0.45475,0.30489 0.25321,0.14469 0.51676,0.31006 0.26872,0.16019 0.52193,0.35139 0.25322,0.19121 0.45475,0.43409 0.20154,0.24287 0.32556,0.54776 0.12403,0.30489 0.13436,0.69247 v 0.0413 q 0,0.42374 -0.10335,0.73897 -0.10335,0.31522 -0.27388,0.5426 -0.17054,0.22737 -0.39791,0.37724 -0.22738,0.14469 -0.48059,0.23254 -0.24805,0.0879 -0.50643,0.12402 -0.25321,0.0362 -0.48059,0.0413 h -0.0517 q -0.43925,0 -0.76998,-0.0879 -0.33073,-0.0879 -0.56844,-0.23254 -0.23771,-0.14986 -0.39791,-0.34106 -0.15502,-0.19121 -0.24804,-0.39274 -0.093,-0.20671 -0.13436,-0.40825 -0.0413,-0.20153 -0.0413,-0.37723 0,-0.18087 0.062,-0.31523 0.062,-0.13436 0.1602,-0.21704 0.10335,-0.0879 0.23254,-0.12919 0.13436,-0.0413 0.27905,-0.0413 0.13436,0 0.27389,0.0413 0.14469,0.0413 0.25838,0.12919 0.11885,0.0827 0.1912,0.21704 0.0775,0.12919 0.0827,0.30489 0.0103,0.38757 0.1757,0.53227 0.16536,0.13952 0.47542,0.13952 0.15503,-0.005 0.28422,-0.0362 0.13436,-0.0362 0.22738,-0.11886 0.093,-0.0878 0.14469,-0.22737 0.0568,-0.14469 0.0568,-0.36173 0,-0.26872 -0.12402,-0.48576 -0.11885,-0.21704 -0.31522,-0.40308 -0.19637,-0.18603 -0.44959,-0.3514 -0.25321,-0.17053 -0.51676,-0.33589 -0.26355,-0.17053 -0.51676,-0.3514 -0.24805,-0.18603 -0.44959,-0.40307 -0.20153,-0.21704 -0.32556,-0.48059 -0.11885,-0.26355 -0.12402,-0.59945 v -0.0827 q 0.005,-0.55294 0.14469,-0.91984 0.1447,-0.3669 0.41858,-0.58394 0.27905,-0.21704 0.68213,-0.30489 0.40307,-0.093 0.925,-0.093 h 0.13436 q 0.47542,0 0.80615,0.10336 0.33073,0.10335 0.54777,0.26354 0.22221,0.1602 0.34623,0.36174 0.12919,0.20154 0.1912,0.39791 0.062,0.19637 0.0775,0.3669 0.0155,0.17053 0.0155,0.27388 0,0.15503 -0.062,0.28422 -0.0568,0.12402 -0.1602,0.21187 -0.0982,0.0879 -0.23771,0.13953 -0.13436,0.0465 -0.29455,0.0465 -0.12403,0 -0.24805,-0.0465 -0.12402,-0.0517 -0.22221,-0.12919 -0.0982,-0.0775 -0.16019,-0.1757 -0.062,-0.10335 -0.062,-0.20671 0,-0.42374 -0.15503,-0.58911 -0.14986,-0.16536 -0.44442,-0.16536 -0.13953,0 -0.27388,0.0155 -0.12919,0.0155 -0.23255,0.0879 -0.0982,0.0672 -0.16019,0.21188 -0.0568,0.14469 -0.0568,0.40824 z"
       style="letter-spacing:0.232734px;fill:#ffffff;fill-opacity:1;stroke-width:1.00444;stroke-miterlimit:4;stroke-dasharray:none"
       id="path860" />
    <path
       d="m 447.96109,277.01946 h 1.6433 l -0.76481,-2.76984 h -0.11369 z m 3.24527,0.50643 q 0.0103,0.3514 0.0258,0.7183 0.0155,0.3669 0.0155,0.70797 v 0.15503 q 0,0.19637 -0.0155,0.3824 -0.0103,0.18087 -0.0775,0.33073 -0.0672,0.14469 -0.21187,0.23254 -0.1447,0.0879 -0.40825,0.0879 -0.26871,0 -0.41341,-0.0879 -0.14469,-0.0879 -0.21704,-0.23254 -0.0672,-0.14469 -0.0827,-0.33073 -0.0103,-0.18603 -0.0103,-0.3824 v -0.72347 h -2.06705 v 0.72347 q 0,0.19637 -0.0155,0.3824 -0.0103,0.18604 -0.0827,0.33073 -0.0672,0.14469 -0.21187,0.23254 -0.1447,0.0879 -0.41341,0.0879 -0.26872,0 -0.41341,-0.0879 -0.1447,-0.0879 -0.21187,-0.23254 -0.0672,-0.14986 -0.0775,-0.33073 -0.0103,-0.18603 -0.0103,-0.3824 v -0.15503 q 0,-0.1602 0,-0.34107 0.005,-0.18086 0.0103,-0.3669 0.005,-0.18603 0.0103,-0.3669 0.005,-0.18603 0.0103,-0.3514 0.25838,-0.89916 0.5426,-1.819 0.28422,-0.92501 0.5426,-1.82934 0.0517,-0.1912 0.12403,-0.3669 0.0723,-0.18087 0.1912,-0.31006 0.11885,-0.13436 0.30489,-0.21187 0.18603,-0.0827 0.47542,-0.0827 h 0.51676 q 0.28422,0 0.47026,0.0827 0.1912,0.0775 0.31005,0.21187 0.11886,0.12919 0.18604,0.31006 0.0724,0.1757 0.12919,0.3669 z"
       style="letter-spacing:0.232734px;fill:#ffffff;fill-opacity:1;stroke-width:1.00444;stroke-miterlimit:4;stroke-dasharray:none"
       id="path862" />
    <path
       d="m 457.40253,279.66529 q 0,0.0672 -0.0155,0.15503 -0.0103,0.0879 -0.0672,0.17053 -0.0517,0.0775 -0.15503,0.13436 -0.10335,0.0568 -0.27905,0.0568 -0.19637,0 -0.31006,-0.0517 -0.11369,-0.0568 -0.1757,-0.13436 -0.0568,-0.0827 -0.0775,-0.17053 -0.0155,-0.0879 -0.0155,-0.1602 v -0.31006 q -0.24804,0.3669 -0.63561,0.59945 -0.38241,0.22737 -0.94568,0.22737 -0.0982,0 -0.30489,-0.0155 -0.2067,-0.0155 -0.46509,-0.0827 -0.25838,-0.0672 -0.53226,-0.20154 -0.27389,-0.13436 -0.50126,-0.37207 -0.22221,-0.24288 -0.3669,-0.59944 -0.1447,-0.36174 -0.1447,-0.8785 v -2.89387 q 0,-0.42375 0.10336,-0.74931 0.10335,-0.32556 0.26871,-0.56327 0.17053,-0.24288 0.38757,-0.40307 0.21704,-0.16537 0.44442,-0.27389 0.5271,-0.24804 1.20406,-0.28422 0.5736,0 0.98185,0.12919 0.40824,0.12919 0.69246,0.3359 0.28422,0.2067 0.45475,0.47025 0.17053,0.25838 0.26355,0.5271 0.093,0.26872 0.11885,0.51676 0.031,0.24805 0.031,0.42892 0,0.0775 -0.0155,0.1912 -0.0103,0.10852 -0.0879,0.21187 -0.0775,0.0982 -0.24805,0.17053 -0.16536,0.0672 -0.47542,0.0672 -0.10852,0 -0.26872,-0.0103 -0.15503,-0.0155 -0.29972,-0.0672 -0.14469,-0.0517 -0.24805,-0.14986 -0.10335,-0.10336 -0.10335,-0.27905 0,-0.27906 -0.0362,-0.4961 -0.031,-0.2222 -0.11886,-0.37723 -0.0879,-0.15503 -0.24288,-0.23255 -0.15502,-0.0827 -0.3979,-0.0827 -0.25322,0 -0.39274,0.10335 -0.13436,0.10336 -0.19637,0.22738 -0.0723,0.14469 -0.0827,0.33073 v 3.30728 q 0,0.16536 0.0568,0.31006 0.062,0.14469 0.17053,0.25321 0.10852,0.10852 0.25322,0.17053 0.14986,0.062 0.32556,0.062 0.2067,0 0.37206,-0.0879 0.17054,-0.093 0.30489,-0.24288 0.13436,-0.15502 0.23772,-0.34623 0.10852,-0.19637 0.1912,-0.40824 h -0.49609 q -0.14987,-0.0155 -0.26355,-0.0775 -0.10336,-0.0517 -0.18604,-0.15503 -0.0775,-0.10335 -0.0775,-0.28422 0,-0.19637 0.0775,-0.29972 0.0827,-0.10852 0.18604,-0.1602 0.11368,-0.0568 0.26355,-0.0672 h 1.34358 q 0.0362,0 0.11369,0.0155 0.0827,0.0103 0.16536,0.0724 0.0879,0.062 0.14986,0.18604 0.0672,0.11885 0.0672,0.33589 z"
       style="letter-spacing:0.232734px;fill:#ffffff;fill-opacity:1;stroke-width:1.00444;stroke-miterlimit:4;stroke-dasharray:none"
       id="path864" />
    <path
       d="m 458.80315,274.08425 q 0,-0.22221 0.0103,-0.43408 0.0155,-0.21187 0.0878,-0.37723 0.0724,-0.16537 0.22738,-0.26355 0.1602,-0.10336 0.44958,-0.10336 h 1.70532 q 0.63562,0.031 1.13688,0.26872 0.21187,0.10335 0.41341,0.25838 0.2067,0.14986 0.3669,0.37724 0.1602,0.22221 0.25838,0.5271 0.0982,0.30489 0.0982,0.70796 0,0.0827 -0.0155,0.22221 -0.0155,0.13436 -0.0672,0.29972 -0.0517,0.1602 -0.13952,0.3359 -0.0878,0.1757 -0.23255,0.33589 -0.14469,0.1602 -0.35656,0.29456 -0.20671,0.13436 -0.49093,0.21704 0.18087,0.0724 0.3669,0.1912 0.18604,0.11369 0.3359,0.29456 0.14986,0.18086 0.24288,0.43408 0.0982,0.25321 0.0982,0.58911 v 0.7338 q 0,0.062 0.031,0.10335 0.031,0.0413 0.062,0.0723 0.12402,0.12402 0.14469,0.21704 0.0207,0.0879 0.0207,0.14469 0,0.18087 -0.0723,0.30489 -0.0724,0.12402 -0.1912,0.20154 -0.11369,0.0775 -0.26355,0.10852 -0.1447,0.0362 -0.29973,0.0362 -0.17053,0 -0.34623,-0.0517 -0.1757,-0.0568 -0.32039,-0.1602 -0.14469,-0.10335 -0.23771,-0.25838 -0.0879,-0.15503 -0.0879,-0.35657 v -1.09553 q 0,-0.22738 -0.031,-0.41858 -0.031,-0.1912 -0.11885,-0.33073 -0.0879,-0.13953 -0.24288,-0.21704 -0.15503,-0.0775 -0.40307,-0.0775 h -0.57878 v 1.72599 q 0,0.22738 -0.0155,0.44442 -0.0103,0.21704 -0.0827,0.38757 -0.0723,0.16536 -0.23255,0.26872 -0.16019,0.0982 -0.45475,0.0982 -0.28938,0 -0.44958,-0.0982 -0.15503,-0.10336 -0.22738,-0.26872 -0.0723,-0.17053 -0.0878,-0.38757 -0.0103,-0.21704 -0.0103,-0.44442 z m 2.26342,1.97404 q 0.25838,-0.0103 0.46509,-0.12403 0.0879,-0.0465 0.17053,-0.11885 0.0827,-0.0723 0.14986,-0.18087 0.0672,-0.10852 0.10335,-0.25321 0.0413,-0.1447 0.0413,-0.3359 0,-0.17053 -0.0413,-0.29972 -0.0362,-0.13436 -0.0982,-0.23254 -0.062,-0.0982 -0.1447,-0.16537 -0.0775,-0.0672 -0.16019,-0.10852 -0.19637,-0.0982 -0.44442,-0.11369 h -0.74414 v 1.9327 z"
       style="letter-spacing:0.232734px;fill:#ffffff;fill-opacity:1;stroke-width:1.00444;stroke-miterlimit:4;stroke-dasharray:none"
       id="path866" />
    <path
       d="m 464.75128,274.95241 q 0,-0.49609 0.14469,-0.84232 0.14469,-0.3514 0.3669,-0.58394 0.22738,-0.23254 0.49609,-0.36173 0.27389,-0.13436 0.5271,-0.20154 0.25838,-0.0672 0.46509,-0.0827 0.2067,-0.0155 0.30489,-0.0155 h 0.1757 q 0.0982,0 0.30489,0.0155 0.2067,0.0155 0.45992,0.0827 0.25321,0.0672 0.52193,0.20154 0.27388,0.12919 0.49092,0.36173 0.22221,0.23254 0.36174,0.58394 0.14469,0.34623 0.14469,0.84232 v 3.09024 q 0,0.5116 -0.14469,0.86817 -0.13953,0.35656 -0.36174,0.59427 -0.21704,0.23771 -0.49092,0.37724 -0.26872,0.13436 -0.52193,0.20154 -0.25322,0.0672 -0.45992,0.0827 -0.20671,0.0155 -0.30489,0.0155 h -0.1757 q -0.0982,0 -0.30489,-0.0155 -0.20671,-0.0155 -0.46509,-0.0827 -0.25321,-0.0672 -0.5271,-0.20154 -0.26871,-0.13953 -0.49609,-0.37724 -0.22221,-0.23771 -0.3669,-0.59427 -0.14469,-0.35657 -0.14469,-0.86817 z m 1.71565,3.28661 q 0.0103,0.19121 0.0879,0.3359 0.0672,0.12919 0.20154,0.23254 0.13952,0.10336 0.39274,0.10336 0.24804,0 0.3824,-0.10336 0.13436,-0.10335 0.20154,-0.23254 0.0723,-0.14469 0.0879,-0.3359 v -3.36929 q -0.0155,-0.18603 -0.0879,-0.33589 -0.0672,-0.12403 -0.20154,-0.22738 -0.13436,-0.10852 -0.3824,-0.10852 -0.25322,0 -0.39274,0.10852 -0.13436,0.10335 -0.20154,0.22738 -0.0775,0.14986 -0.0879,0.33589 z"
       style="letter-spacing:0.232734px;fill:#ffffff;fill-opacity:1;stroke-width:1.00444;stroke-miterlimit:4;stroke-dasharray:none"
       id="path868" />
  </g>
  <text
     transform="translate(284.97782,155.01541)"
     style="font-size:44.0972px;line-height:1.25;font-family:'Concert One';-inkscape-font-specification:'Concert One';letter-spacing:26.4583px;white-space:pre;shape-inside:url(#rect1522);"
     id="text1520"
     xml:space="preserve"><tspan
       x="112.73828"
       y="71.089664"><tspan
         style="font-style:normal;font-variant:normal;font-weight:normal;font-stretch:normal;font-size:44.0972px;font-family:'Open Sans';-inkscape-font-specification:'Open Sans';fill:#ffffff;fill-opacity:1">sistemas</tspan></tspan></text>
</svg>
